<mxfile host="app.diagrams.net" modified="2023-08-25T13:20:50.407Z" agent="Mozilla/5.0 (Windows NT 10.0; Win64; x64) AppleWebKit/537.36 (KHTML, like Gecko) Chrome/114.0.0.0 Safari/537.36" version="21.6.9" etag="s9h3XK23UM-4tDoK7C1l" type="github">
  <diagram name="Page-1" id="mmyXefSOIc7Gc3rdoTCQ">
    <mxGraphModel>
      <root>
        <mxCell id="0" />
        <mxCell id="1" parent="0" />
      </root>
    </mxGraphModel>
  </diagram>
</mxfile>
